<mxfile host="app.diagrams.net" modified="2023-03-31T14:24:25.268Z" agent="Mozilla/5.0 (Macintosh; Intel Mac OS X 10_15_7) AppleWebKit/537.36 (KHTML, like Gecko) Chrome/111.0.0.0 Safari/537.36" version="21.1.2" etag="nx-TKJ0DuhCC8VPPz6T3" type="github">
  <diagram name="Page-1" id="aezEo4hsik3KxM54tqyB">
    <mxGraphModel>
      <root>
        <mxCell id="0" />
        <mxCell id="1" parent="0" />
      </root>
    </mxGraphModel>
  </diagram>
</mxfile>
